<?xml version="1.0" encoding="utf-8"?>
<!-- Generator: Adobe Illustrator 16.0.0, SVG Export Plug-In . SVG Version: 6.00 Build 0)  -->
<!DOCTYPE svg PUBLIC "-//W3C//DTD SVG 1.1//EN" "http://www.w3.org/Graphics/SVG/1.1/DTD/svg11.dtd">
<svg version="1.1" id="Layer_1" xmlns="http://www.w3.org/2000/svg" xmlns:xlink="http://www.w3.org/1999/xlink" x="0px" y="0px"
	 width="332.983px" height="452.078px" viewBox="0 0 332.983 452.078" enable-background="new 0 0 332.983 452.078"
	 xml:space="preserve">
<path fill="#FFFFFF" d="M169.067,243c-10.283-15.074,11.342-33.386,16.287-46.623c3.516-9.411-4.73-40.68-19.168-29.497
	c-0.23,0.262-0.224,0.269,0.019,0.019c5.627-10.67,22.462-7.5,28.87,0.332c9.586,11.716,8.242,28.955-1.24,40.187
	c6.639-7.628,13.271-17.356,12.028-28.031c-1.987-17.083-22.357-26.572-35.143-34.837c-15.742-10.177-33.036-25.654-33.791-46.187
	c-0.685-18.639,10.162-36.029,22.366-45.277c-8.084,7.415-11.251,20.979-11.071,31.476c0.377,21.979,19.042,32.021,35.687,42.207
	c17.986,11.006,38.318,25.593,39.312,48.773c0.854,19.947-13.542,34.488-30.155,43.458C176.401,228,169.067,243,169.067,243z"/>
<path fill="#FFFFFF" d="M215.068,339c-21.479,1.651-42.895,3.85-64.161,7.35c-22.789,3.75-51.128,7.512-70.273,21.616
	c-14.592,10.751-1.5,14.573,10.331,11.256c17.122-4.801,31.776-15.633,47.736-23.079c20.73-9.673,50.184-17.171,72.798-11.543
	c14.883,3.704,27.557,9.53,43.186,4.998c10.282-2.981,38.468-18.004,33.71-32.758c-6.588-20.43-56.887,12.504-67.609,18.358
	c-2.343,1.28-4.697,2.541-7.051,3.802H215.068z"/>
<path fill="#FFFFFF" d="M205.65,245.951c-20.978,3.99-44.196,6.722-65.35,2.483c-9.687-1.941-25.917-7.475-23.897-20.324
	c1.938-12.334,19.335-17.032,29.38-19.091c18.651-3.823,37.881-2.485,56.697-0.879c-2.944-5.098-18.532-4.612-23.878-4.938
	c-11.876-0.722-13.054-1.444-24.919-0.664c-10.819,0.712-33.862,5.557-47.283,16.461c0,0-3.162,2.399-5.055,6.222
	c-6.053,9.905-4.631,21.411-1.386,33.778c-10.796-10.765-29.452-5.364-33.136,9.618c-6.125,24.908,15.91,34.068,33.498,43.56
	c7.586,4.094,13.055,9.429,18.017,16.392c-5.951-12.988-19.14-17.979-29.713-26.434c-11.566-9.249-15.58-31.484,5.241-31.46
	c4.401,0.005,7.869,2.623,10.885,6.062c3.391,23.467,12.138,51.252,30.445,66.19c3.077,2.511,5.623,4.518,8.553,6.019
	c-7.035-4.881-12.208-16.268-15.567-22.652c-5.36-10.188-9.349-20.961-12.478-32.067c-1.764-6.262-15.97-53.894,13.514-40.971
	c22.753,5.685,51.05,2.502,70.356-1.62c15.749-3.362,31.101-8.496,43.393-19.202C231.973,240.23,218.715,243.466,205.65,245.951z"/>
<path fill="#FFFFFF" d="M107.735,283.667C85.7,284.49,19.194,309.618,36.05,341.643c4.514,8.575,13.252,14.728,21.468,19.405
	c-44.184-34.042,25.938-66.435,55.983-68.016c-2.649-2.199-4.628-7.131-5.766-8.698V283.667z"/>
</svg>
